<?xml version="1.0" encoding="UTF-8"?>
<svg id="_Слой_2" data-name="Слой 2" xmlns="http://www.w3.org/2000/svg" viewBox="0 0 818 682">
  <defs>
    <style>
      .cls-1 {
        fill: #fff;
        stroke-width: 0px;
      }
    </style>
  </defs>
  <g>
    <path class="cls-1" d="m190.7,147.73c.73-.18,1.55-.27,2.46-.27,2.55,0,4.92.73,7.1,2.18l6.28,4.37c3.09,2.01,5.01,4.83,5.74,8.47.36.91.55,1.82.55,2.73,0,2.55-.82,4.92-2.46,7.1-11.11,16.21-25.68,30.23-43.7,42.07-.18.18-.27.5-.27.96s.18.68.55.68c22.22,6.56,48.08,10.93,77.58,13.11,3.46.18,5.92,1.82,7.37,4.92.55,1.46.82,2.83.82,4.1,0,1.64-.46,3.28-1.37,4.92-.91,1.27-1.73,2.64-2.46,4.1-2.55,4.19-5.92,7.47-10.11,9.83-3.46,2-7.1,3.01-10.93,3.01-.73,0-1.55-.09-2.46-.27-37.88-4.19-69.65-12.2-95.33-24.04-1.28-.55-2.55-.55-3.82,0-27.14,11.1-59.55,19.3-97.24,24.58h-3c-3.46,0-6.83-.91-10.11-2.73-4.01-2.37-7.1-5.74-9.29-10.11-.18-.55-.46-1.09-.82-1.64-.91-1.64-1.37-3.28-1.37-4.92,0-1.46.36-3,1.09-4.64,1.64-3.28,4.19-5.1,7.65-5.46,30.96-3.09,57.73-8.19,80.31-15.3.36,0,.59-.23.68-.68.09-.45-.05-.77-.41-.96-8.19-6.56-15.84-13.93-22.95-22.13-.91-1.09-1.91-1.27-3-.55-8.38,5.1-17.3,9.83-26.77,14.2-2.37.91-4.83,1.37-7.38,1.37-1.82,0-3.64-.27-5.46-.82-4.37-1.27-8.11-3.73-11.2-7.38v-.27c-1.82-2.18-2.73-4.55-2.73-7.1,0-.73.09-1.55.27-2.46.73-3.46,2.73-5.92,6.01-7.38,22.22-8.92,40.43-19.85,54.63-32.78,1.09-.91,1.18-1.91.27-3-2.55-3.09-5.92-6.56-10.11-10.38-2.73-2.55-4.1-5.64-4.1-9.29,0-4.19,1.64-7.65,4.92-10.38,16.39-14.02,24.95-33.41,25.68-58.18,0-1.46-.73-2.19-2.18-2.19H20.26c-4.19,0-7.78-1.46-10.79-4.37-3-2.91-4.51-6.51-4.51-10.79s1.5-7.87,4.51-10.79c3-2.91,6.6-4.37,10.79-4.37h89.05c1.46,0,2.18-.73,2.18-2.19v-5.74c0-4.55,1.55-8.37,4.64-11.47,3.09-3.09,6.92-4.64,11.47-4.64h1.64c4.55,0,8.37,1.55,11.47,4.64,3.09,3.1,4.64,6.92,4.64,11.47v5.74c0,1.46.73,2.19,2.18,2.19h89.87c4.19,0,7.78,1.46,10.79,4.37,3,2.91,4.51,6.51,4.51,10.79s-1.5,7.88-4.51,10.79c-3,2.91-6.6,4.37-10.79,4.37h-54.63c-1.46,0-2.19.73-2.19,2.19v48.35c0,7.29-.82,13.02-2.46,17.21-1.64,4.19-4.74,7.38-9.29,9.56-5.46,2.55-13.48,4.1-24.04,4.64h-.82c-4.01,0-7.56-1.37-10.65-4.1-3.46-2.73-5.92-6.28-7.38-10.65-.37-1.27-.55-2.46-.55-3.55,0-2.19.64-4.19,1.91-6.01,2-2.91,4.73-4.37,8.19-4.37h8.47c1.64,0,2.77-.27,3.41-.82.64-.55.96-1.46.96-2.73v-47.53c0-1.46-.73-2.19-2.18-2.19h-21.31c-1.28,0-2.01.73-2.19,2.19-.18,29.14-7.47,52.36-21.85,69.65-.18.37-.23.78-.14,1.23.09.46.41.68.96.68l12.57,2.46c3.46.73,5.83,2.73,7.1,6.01.36,1.28.55,2.46.55,3.55,0,1.82-.73,3.65-2.19,5.46-.18.37-.18.68,0,.96.18.27.45.41.82.41h70.2ZM33.09,78.35c2.73-3.82,6.19-6.73,10.38-8.74,2.55-1.09,5.19-1.64,7.92-1.64,1.64,0,3.28.27,4.92.82,4,.91,6.83,3.28,8.47,7.1.55,1.64.82,3.19.82,4.64,0,2.19-.64,4.28-1.91,6.28-8.56,13.11-18.3,24.58-29.23,34.42-3.1,2.73-6.65,4.1-10.65,4.1h-.82c-4.19-.18-8.02-1.73-11.47-4.64-2.73-2.36-4.1-5.37-4.1-9.01s1.46-6.73,4.37-9.29c8.19-7.1,15.3-15.11,21.31-24.04Zm133.3,97.24c.36-.36.45-.68.27-.96-.18-.27-.46-.41-.82-.41h-69.65c-.55,0-.87.18-.96.55-.09.37-.05.64.14.82,8.74,9.65,19.57,17.94,32.51,24.86,1.27.73,2.55.73,3.82,0,14.02-7.28,25.58-15.57,34.69-24.86Zm32.23-86.59c-2.01-2.18-3-4.73-3-7.65v-2.19c.55-3.64,2.46-6.46,5.74-8.47,3.09-1.64,6.28-2.46,9.56-2.46h2.73c4.37.73,8.1,2.64,11.2,5.74,9.65,10.2,17.84,19.67,24.58,28.41,2,2.73,3.01,5.56,3.01,8.47,0,1.09-.09,2.18-.27,3.28-.91,4.37-3.28,7.74-7.1,10.11h-.27c-2.55,1.64-5.28,2.46-8.19,2.46-1.28,0-2.55-.18-3.82-.55-4.19-1.09-7.56-3.46-10.11-7.1-6.38-9.1-14.39-19.12-24.04-30.05Z"/>
    <path class="cls-1" d="m347.22,121.78c1.27-.36,2.55-.55,3.82-.55,2.36,0,4.64.73,6.83,2.19,3.46,2.18,5.46,5.28,6.01,9.29v2.46c0,3.28-.91,6.38-2.73,9.29-2.37,3.82-5.56,6.38-9.56,7.65-3.82,1.09-7.38,2.1-10.65,3-1.28.37-1.91,1.19-1.91,2.46v68.84c0,8.01-.78,14.2-2.32,18.57-1.55,4.37-4.42,7.92-8.6,10.65-5.28,3.28-12.93,5.19-22.94,5.74h-1.09c-4.01,0-7.65-1.37-10.93-4.1-3.46-2.91-5.83-6.65-7.1-11.2-.18-1.09-.27-2.18-.27-3.28,0-2.37.73-4.64,2.18-6.83,2.36-3.09,5.37-4.64,9.02-4.64,3.28,0,5.64-.09,7.1-.27,1.64,0,2.82-.32,3.55-.96.73-.64,1.09-1.87,1.09-3.69v-59.82c0-.55-.18-.96-.55-1.23-.37-.27-.82-.32-1.37-.14-2.73.73-5.74,1.64-9.01,2.73-1.46.37-2.92.55-4.37.55-2.55,0-5.1-.73-7.65-2.19-3.82-2.36-6.19-5.64-7.1-9.83v-.55c-.37-1.27-.55-2.46-.55-3.55,0-3.09.82-5.92,2.46-8.47,2.36-3.82,5.74-6.28,10.11-7.38,1.82-.36,4.51-1,8.06-1.91,3.55-.91,6.24-1.55,8.06-1.91,1.27-.36,1.91-1.27,1.91-2.73v-44.25c0-1.27-.64-1.91-1.91-1.91h-12.02c-4.19,0-7.78-1.5-10.79-4.51s-4.51-6.6-4.51-10.79,1.5-7.78,4.51-10.79c3-3,6.6-4.51,10.79-4.51h12.02c1.27,0,1.91-.64,1.91-1.91V15.8c0-4.19,1.5-7.74,4.51-10.65,3-2.91,6.6-4.37,10.79-4.37s7.74,1.46,10.65,4.37c2.91,2.91,4.37,6.47,4.37,10.65v35.51c0,1.28.73,1.91,2.18,1.91h17.75c1.64,0,2.96.55,3.96,1.64,1,1.09,1.5,2.37,1.5,3.82,0,.18.09.32.27.41.18.09.27.05.27-.14,15.48-11.84,27.68-26.77,36.6-44.8,2-4.19,5.01-7.38,9.02-9.56,2.91-1.82,6.01-2.73,9.29-2.73,1.09,0,2.09.09,3,.27l.55.27c3.82.55,6.65,2.46,8.47,5.74.91,1.82,1.37,3.65,1.37,5.46,0,1.64-.37,3.28-1.09,4.92-.18.37-.14.73.14,1.09.27.37.59.55.96.55h33.05c2.73-.73,5.37-.27,7.92,1.37l6.83,4.1c2.91,2.01,4.82,4.64,5.74,7.92.36,1.28.55,2.46.55,3.55,0,2.18-.46,4.28-1.37,6.28-3.64,6.56-7.74,13.48-12.29,20.76-.37.37-.41.73-.14,1.09.27.37.59.55.96.55h35.51c4.55,0,8.37,1.6,11.47,4.78,3.09,3.19,4.64,6.97,4.64,11.34v61.73c0,4.01-1.37,7.38-4.1,10.11-2.73,2.73-6.06,4.1-9.97,4.1s-7.24-1.37-9.97-4.1c-2.73-2.73-4.1-6.1-4.1-10.11v-6.56c0-1.46-.73-2.18-2.18-2.18h-17.21c-10.02,0-16.66-1.82-19.94-5.46-3.28-3.64-4.92-10.56-4.92-20.76v-14.75c0-1.27-.73-1.91-2.18-1.91h-6.83c-1.28,0-2.01.64-2.18,1.91-2.37,18.76-9.02,32.42-19.94,40.97-2.18,1.64-4.55,2.46-7.1,2.46-.91,0-1.91-.18-3-.55-3.64-.91-6.74-2.91-9.29-6.01-.18-.36-.46-.5-.82-.41-.37.09-.55.32-.55.68v13.66c0,3.82-1.32,7.06-3.96,9.7-2.64,2.64-5.87,3.96-9.7,3.96s-7.1-1.32-9.83-3.96c-2.73-2.64-4.1-5.87-4.1-9.7v-61.73c0-1.46-.46-2.64-1.37-3.55-1.64-1.82-4.1-4.28-7.38-7.38-.18-.18-.41-.23-.68-.14-.27.09-.41.32-.41.68,0,3.1-1.09,5.74-3.28,7.92-2.18,2.19-4.83,3.28-7.92,3.28h-12.02c-1.46,0-2.18.64-2.18,1.91v36.33c0,.55.23.96.68,1.23.45.27.86.32,1.23.14l6.28-1.64Zm183.83,49.17c2.73,2.73,4.1,6.01,4.1,9.83s-1.37,7.06-4.1,9.7c-2.73,2.64-6.01,3.96-9.83,3.96h-45.89c-.37,0-.68.23-.96.68-.27.46-.32.87-.14,1.23,10.56,16.57,27.04,27.77,49.44,33.6,3.46.91,5.83,3,7.1,6.28.36,1.27.55,2.55.55,3.82,0,2-.64,3.91-1.91,5.74-.18.18-.37.45-.55.82-2.73,4.19-6.19,7.28-10.38,9.29-2.55,1.09-5.1,1.64-7.65,1.64-1.82,0-3.55-.27-5.19-.82-25.13-8.19-43.7-22.94-55.72-44.25-.18-.36-.5-.55-.96-.55s-.78.18-.96.55c-5.83,10.75-14.11,19.85-24.86,27.32-10.75,7.47-24.86,13.66-42.34,18.58-1.64.55-3.19.82-4.64.82-2.55,0-5.1-.64-7.65-1.91-4.01-1.82-7.2-4.64-9.56-8.47-1.28-1.82-1.91-3.73-1.91-5.74,0-1.28.27-2.46.82-3.55,1.09-3.46,3.37-5.55,6.83-6.28,15.66-4,28-8.97,37.01-14.89,9.02-5.92,15.8-13.25,20.35-21.99.18-.36.14-.77-.14-1.23-.27-.45-.59-.68-.96-.68h-44.8c-3.82,0-7.1-1.32-9.83-3.96-2.73-2.64-4.1-5.87-4.1-9.7s1.37-7.1,4.1-9.83c2.73-2.73,6.01-4.1,9.83-4.1h52.45c1.46,0,2.27-.64,2.46-1.91.18-1.82.45-3.73.82-5.74.36-4.19,2.09-7.74,5.19-10.65,3.09-2.91,6.73-4.37,10.93-4.37s7.65,1.46,10.38,4.37c2.36,2.73,3.55,5.74,3.55,9.01v1.64c-.18,2.01-.37,3.92-.55,5.74-.18,1.28.36,1.91,1.64,1.91h58.18c3.82,0,7.1,1.37,9.83,4.1Zm-81.13-123.47c.18-.36.14-.73-.14-1.09-.27-.36-.68-.55-1.23-.55h-29.77c-1.28,0-2.28.55-3.01,1.64-3.82,5.28-8.47,10.93-13.93,16.94-.18.18-.18.46,0,.82.18.37.45.55.82.55h35.24c1.46,0,2.55-.55,3.28-1.64,3.46-6.19,6.37-11.75,8.74-16.66Zm-45.89,44.52c-1.46,0-2.19.64-2.19,1.91v25.95c0,.37.23.64.68.82.45.18.86.18,1.23,0,8.37-5.46,13.47-14.38,15.3-26.77.18-1.27-.46-1.91-1.91-1.91h-13.11Zm93.15,21.31c.55-.55.82-1.46.82-2.73v-16.66c0-1.27-.73-1.91-2.18-1.91h-16.12c-1.28,0-1.91.64-1.91,1.91v14.75c0,2.37.27,3.82.82,4.37s1.73.82,3.55.82h10.93c2.18,0,3.55-.18,4.1-.55Z"/>
    <path class="cls-1" d="m810.63,112.08c2.82,2.83,4.23,6.24,4.23,10.24s-1.41,7.42-4.23,10.24-6.24,4.23-10.24,4.23h-48.08c-.37,0-.59.18-.68.55-.09.37-.05.64.14.82,16.02,12.39,35.05,22.13,57.09,29.23,3.46,1.09,5.64,3.37,6.56,6.83.36.91.55,1.91.55,3,0,2.19-.82,4.28-2.46,6.28-1.28,1.64-2.55,3.37-3.82,5.19-2.01,2.73-4.55,4.74-7.65,6.01-1.64.55-3.28.82-4.92.82s-3.19-.27-4.64-.82c-.91-.36-1.37,0-1.37,1.09v50.81c0,4.19-1.5,7.78-4.51,10.79-3,3.01-6.6,4.51-10.79,4.51h-7.38c-2.18,0-4.05-.78-5.6-2.32-1.55-1.55-2.32-3.42-2.32-5.6,0-.73-.27-1.09-.82-1.09h-31.41c-.73,0-1.09.36-1.09,1.09,0,2.36-.78,4.32-2.32,5.87-1.55,1.54-3.51,2.32-5.87,2.32h-6.28c-4.01,0-7.42-1.41-10.24-4.23-2.83-2.83-4.23-6.24-4.23-10.24v-63.92c0-4.37,1.54-8.15,4.64-11.34,3.09-3.18,6.92-4.78,11.47-4.78h23.22c.36,0,.59-.14.68-.41.09-.27-.05-.5-.41-.68-11.47-8.37-21.49-17.76-30.05-28.13-.73-1.09-1.82-1.64-3.28-1.64h-32.23c-1.28,0-2.46.55-3.55,1.64-10.2,10.56-21.4,19.94-33.6,28.13-.37.18-.5.41-.41.68.09.27.32.41.68.41h24.58c4.37,0,8.15,1.6,11.34,4.78,3.18,3.19,4.78,6.97,4.78,11.34v63.1c0,4.19-1.46,7.74-4.37,10.65-2.91,2.91-6.47,4.37-10.65,4.37h-7.1c-2.18,0-4.05-.78-5.6-2.32-1.55-1.55-2.32-3.42-2.32-5.6,0-.73-.27-1.09-.82-1.09h-31.69c-.55,0-.82.36-.82,1.09,0,2.36-.82,4.32-2.46,5.87-1.64,1.54-3.55,2.32-5.74,2.32h-6.28c-4.01,0-7.42-1.41-10.24-4.23-2.83-2.83-4.23-6.24-4.23-10.24v-53.54c0-.91-.46-1.18-1.37-.82-1.64.73-3.28,1.09-4.92,1.09-1.46,0-2.92-.27-4.37-.82-3.1-1.09-5.65-3.01-7.65-5.74-.91-1.46-1.82-2.73-2.73-3.82-1.64-2.19-2.46-4.55-2.46-7.1,0-.91.18-1.91.55-3,.91-3.64,3.09-6.19,6.55-7.65,19.67-7.65,37.15-17.02,52.45-28.13.36-.18.5-.45.41-.82-.09-.36-.32-.55-.68-.55h-43.43c-4.01,0-7.42-1.41-10.24-4.23-2.83-2.82-4.23-6.24-4.23-10.24s1.41-7.42,4.23-10.24,6.24-4.23,10.24-4.23h73.75c1.45,0,2.64-.55,3.55-1.64,2.73-3.82,5.55-7.92,8.47-12.29.18-.36.18-.73,0-1.09-.18-.36-.55-.55-1.09-.55h-65.56c-4.55,0-8.38-1.59-11.47-4.78-3.1-3.18-4.64-6.97-4.64-11.34V27.27c0-4.55,1.54-8.37,4.64-11.47,3.09-3.09,6.92-4.64,11.47-4.64h63.37c4.37,0,8.15,1.55,11.34,4.64,3.18,3.1,4.78,6.92,4.78,11.47v52.99c0,1.46.64,2.37,1.91,2.73l22.4,7.65c.55.18,1,.14,1.37-.14.36-.27.55-.68.55-1.23V27.27c0-4.55,1.59-8.37,4.78-11.47,3.18-3.09,6.97-4.64,11.34-4.64h63.37c4.55,0,8.37,1.55,11.47,4.64,3.09,3.1,4.64,6.92,4.64,11.47v48.89c0,4.37-1.55,8.15-4.64,11.34-3.1,3.19-6.92,4.78-11.47,4.78h-79.22c-.18,0-.27-.09-.27-.27-1.82,4.01-4.37,8.65-7.65,13.93-.18.55-.18,1,0,1.37.18.37.55.55,1.09.55h105.98c4,0,7.42,1.41,10.24,4.23Zm-169.49-46.03c1.27,0,1.91-.64,1.91-1.91v-25.13c0-1.27-.64-1.91-1.91-1.91h-29.77c-1.46,0-2.18.64-2.18,1.91v25.13c0,1.28.73,1.91,2.18,1.91h29.77Zm3.01,159.8c1.27,0,1.91-.64,1.91-1.91v-26.77c0-1.46-.64-2.18-1.91-2.18h-29.5c-1.28,0-1.91.73-1.91,2.18v26.77c0,1.28.64,1.91,1.91,1.91h29.5Zm83.04-1.91c0,1.28.73,1.91,2.18,1.91h29.23c1.27,0,1.91-.64,1.91-1.91v-26.77c0-1.46-.64-2.18-1.91-2.18h-29.23c-1.46,0-2.18.73-2.18,2.18v26.77Zm5.74-186.84c-1.28,0-1.91.64-1.91,1.91v25.13c0,1.28.64,1.91,1.91,1.91h29.77c1.46,0,2.19-.64,2.19-1.91v-25.13c0-1.27-.73-1.91-2.19-1.91h-29.77Z"/>
  </g>
  <g>
    <path class="cls-1" d="m15.2,678.75c-3.31,0-6.17-1.2-8.58-3.62-2.41-2.41-3.62-5.27-3.62-8.58v-139.12c0-3.31,1.2-6.17,3.62-8.58,2.41-2.41,5.27-3.62,8.58-3.62h7.03c3.31,0,6.17,1.21,8.58,3.62,2.41,2.41,3.62,5.27,3.62,8.58v24.81l-1.65,20.67c0,.14.1.28.31.41.21.14.38.07.52-.21,8.82-10.61,18.33-15.92,28.53-15.92,18.88,0,28.32,13.71,28.32,41.14v68.22c0,3.31-1.21,6.17-3.62,8.58-2.41,2.41-5.27,3.62-8.58,3.62h-7.24c-3.31,0-6.17-1.2-8.58-3.62-2.41-2.41-3.62-5.27-3.62-8.58v-65.53c0-6.34-.72-10.85-2.17-13.54-1.45-2.69-4.1-4.03-7.96-4.03-4.83,0-9.37,3.72-13.64,11.16-.41.83-.62,1.79-.62,2.89v69.04c0,3.31-1.21,6.17-3.62,8.58-2.41,2.41-5.27,3.62-8.58,3.62h-7.03Z"/>
    <path class="cls-1" d="m158.45,681.23c-14.88,0-27.22-5.55-37-16.64-9.79-11.09-14.68-26.22-14.68-45.38s4.72-33.42,14.16-44.86c9.44-11.44,20.64-17.16,33.59-17.16s23.88,5.17,31.11,15.5c7.24,10.34,10.85,24.05,10.85,41.14v2.27c-.14,3.45-1.48,6.34-4.03,8.68-2.55,2.34-5.62,3.51-9.2,3.51h-44.44c-1.1,0-1.59.55-1.45,1.65,1.1,8.96,3.86,15.81,8.27,20.57,4.41,4.75,9.99,7.13,16.74,7.13,3.31,0,6.48-.48,9.51-1.45,1.51-.55,3.03-.83,4.55-.83,1.24,0,2.62.21,4.13.62,2.89.83,5.03,2.48,6.41,4.96.96,1.79,1.48,3.69,1.55,5.68.07,2-.38,3.82-1.34,5.48-.97,1.65-2.34,2.89-4.13,3.72-7.72,3.58-15.92,5.37-24.6,5.37Zm-21.71-75.45c0,.83.48,1.24,1.45,1.24h30.59c.96,0,1.45-.48,1.45-1.45v-.21c-.14-7.72-1.48-13.71-4.03-17.98-2.55-4.27-6.24-6.41-11.06-6.41-4.55,0-8.55,2.14-11.99,6.41-4.27,5.37-6.41,11.51-6.41,18.4Z"/>
    <path class="cls-1" d="m226.88,678.75c-3.31,0-6.17-1.2-8.58-3.62-2.41-2.41-3.62-5.27-3.62-8.58v-94.47c0-3.44,1.2-6.34,3.62-8.68,2.41-2.34,5.27-3.51,8.58-3.51h.83c3.44,0,6.51,1.14,9.2,3.41,2.69,2.27,4.31,5.14,4.86,8.58l.21,1.86c0,.28.14.41.41.41s.55-.07.83-.21c8.54-11.16,18.74-16.74,30.59-16.74,18.88,0,28.32,13.71,28.32,41.14v68.22c0,3.31-1.21,6.17-3.62,8.58-2.41,2.41-5.27,3.62-8.58,3.62h-7.24c-3.31,0-6.17-1.2-8.58-3.62-2.41-2.41-3.62-5.27-3.62-8.58v-65.53c0-6.34-.72-10.85-2.17-13.54-1.45-2.69-4.1-4.03-7.96-4.03-4.83,0-9.37,3.72-13.64,11.16-.41.83-.62,1.79-.62,2.89v69.04c0,3.31-1.21,6.17-3.62,8.58-2.41,2.41-5.27,3.62-8.58,3.62h-7.03Z"/>
    <path class="cls-1" d="m332.92,678.75c-3.31,0-6.17-1.2-8.58-3.62-2.41-2.41-3.62-5.27-3.62-8.58v-139.12c0-3.31,1.2-6.17,3.62-8.58,2.41-2.41,5.27-3.62,8.58-3.62h5.99c3.31,0,6.17,1.21,8.58,3.62,2.41,2.41,3.62,5.27,3.62,8.58v81.03c0,.28.14.41.41.41s.48-.14.62-.41l22.33-38.24c1.93-3.17,4.55-5.68,7.86-7.55,3.31-1.86,6.82-2.79,10.54-2.79h7.86c2.62,0,4.55,1.1,5.79,3.31.55,1.1.83,2.21.83,3.31,0,1.24-.35,2.41-1.03,3.51l-23.77,37.62c-.55.83-.62,1.72-.21,2.69l26.67,57.26c.55,1.24.83,2.41.83,3.51,0,1.38-.48,2.76-1.45,4.13-1.52,2.35-3.65,3.51-6.41,3.51h-6.82c-3.72,0-7.1-1.03-10.13-3.1-3.03-2.07-5.24-4.75-6.61-8.06l-14.88-35.97c-.14-.27-.38-.41-.72-.41s-.59.14-.72.41l-10.13,16.33c-.55.97-.83,1.93-.83,2.89v15.71c0,3.31-1.21,6.17-3.62,8.58-2.41,2.41-5.27,3.62-8.58,3.62h-5.99Z"/>
    <path class="cls-1" d="m454.27,681.23c-9.23,0-16.5-2.96-21.81-8.89-5.31-5.92-7.96-13.99-7.96-24.19,0-12.68,4.72-22.64,14.16-29.87,9.44-7.24,23.18-12.3,41.24-15.19,1.1-.27,1.58-.89,1.45-1.86-.28-5.92-1.86-10.65-4.75-14.16-2.89-3.51-6.55-5.27-10.96-5.27-4.83,0-10.2,1.45-16.12,4.34-1.79.97-3.65,1.45-5.58,1.45-1.1,0-2.27-.21-3.51-.62-3.17-.83-5.51-2.69-7.03-5.58-1.1-1.79-1.65-3.65-1.65-5.58,0-1.1.21-2.2.62-3.31.83-3.17,2.69-5.44,5.58-6.82,11.71-5.65,22.95-8.48,33.69-8.48,12.54,0,22.46,4.21,29.77,12.61,7.3,8.41,10.96,20.54,10.96,36.38v60.36c0,3.31-1.21,6.17-3.62,8.58-2.41,2.41-5.27,3.62-8.58,3.62h-.62c-3.59,0-6.72-1.14-9.41-3.41-2.69-2.27-4.38-5.13-5.06-8.58l-.21-1.24c0-.27-.14-.41-.41-.41s-.55.14-.83.41c-7.99,10.47-17.78,15.71-29.35,15.71Zm10.54-23.77c5.65,0,10.89-3.17,15.71-9.51.55-.83.83-1.79.83-2.89v-21.91c0-.83-.35-1.24-1.03-1.24h-.41c-9.37,2.07-15.99,4.89-19.84,8.48-3.86,3.59-5.79,8.34-5.79,14.26,0,8.55,3.51,12.82,10.54,12.82Z"/>
    <path class="cls-1" d="m544.4,678.75c-3.31,0-6.17-1.2-8.58-3.62-2.41-2.41-3.62-5.27-3.62-8.58v-94.47c0-3.44,1.2-6.34,3.62-8.68,2.41-2.34,5.27-3.51,8.58-3.51h.83c3.44,0,6.51,1.14,9.2,3.41,2.69,2.27,4.31,5.14,4.86,8.58l.21,1.86c0,.28.14.41.41.41s.55-.07.83-.21c8.54-11.16,18.74-16.74,30.59-16.74,18.88,0,28.32,13.71,28.32,41.14v68.22c0,3.31-1.21,6.17-3.62,8.58-2.41,2.41-5.27,3.62-8.58,3.62h-7.24c-3.31,0-6.17-1.2-8.58-3.62-2.41-2.41-3.62-5.27-3.62-8.58v-65.53c0-6.34-.72-10.85-2.17-13.54-1.45-2.69-4.1-4.03-7.96-4.03-4.83,0-9.37,3.72-13.64,11.16-.41.83-.62,1.79-.62,2.89v69.04c0,3.31-1.21,6.17-3.62,8.58-2.41,2.41-5.27,3.62-8.58,3.62h-7.03Z"/>
    <path class="cls-1" d="m650.44,678.75c-3.31,0-6.17-1.2-8.58-3.62-2.41-2.41-3.62-5.27-3.62-8.58v-139.12c0-3.31,1.2-6.17,3.62-8.58s5.27-3.62,8.58-3.62h5.99c3.31,0,6.17,1.21,8.58,3.62,2.41,2.41,3.62,5.27,3.62,8.58v81.03c0,.28.14.41.41.41s.48-.14.62-.41l22.33-38.24c1.93-3.17,4.55-5.68,7.86-7.55,3.31-1.86,6.82-2.79,10.54-2.79h7.86c2.62,0,4.55,1.1,5.79,3.31.55,1.1.83,2.21.83,3.31,0,1.24-.35,2.41-1.03,3.51l-23.77,37.62c-.55.83-.62,1.72-.21,2.69l26.67,57.26c.55,1.24.83,2.41.83,3.51,0,1.38-.48,2.76-1.45,4.13-1.52,2.35-3.65,3.51-6.41,3.51h-6.82c-3.72,0-7.1-1.03-10.13-3.1-3.03-2.07-5.24-4.75-6.61-8.06l-14.88-35.97c-.14-.27-.38-.41-.72-.41s-.59.14-.72.41l-10.13,16.33c-.55.97-.83,1.93-.83,2.89v15.71c0,3.31-1.21,6.17-3.62,8.58-2.41,2.41-5.27,3.62-8.58,3.62h-5.99Z"/>
    <path class="cls-1" d="m792.67,678.75c-3.31,0-6.17-1.2-8.58-3.62-2.41-2.41-3.62-5.27-3.62-8.58v-80.62c0-1.1-.48-1.65-1.45-1.65h-20.67c-3.31,0-6.17-1.17-8.58-3.51-2.41-2.34-3.62-5.24-3.62-8.68s1.2-6.34,3.62-8.68c2.41-2.34,5.27-3.51,8.58-3.51h41.55c3.31,0,6.17,1.17,8.58,3.51,2.41,2.34,3.62,5.24,3.62,8.68v94.47c0,3.31-1.21,6.17-3.62,8.58-2.41,2.41-5.27,3.62-8.58,3.62h-7.24Zm1.86-138.3c-5.51,0-10.03-1.58-13.54-4.75-3.51-3.17-5.27-7.3-5.27-12.4s1.76-9.1,5.27-12.4c3.51-3.31,8.03-4.96,13.54-4.96s9.82,1.65,13.33,4.96c3.51,3.31,5.27,7.44,5.27,12.4s-1.76,9.23-5.27,12.4c-3.51,3.17-7.96,4.75-13.33,4.75Z"/>
  </g>
  <g>
    <path class="cls-1" d="m286.83,313.79h-9.02v-8.92h-18.47v-9.29h54.85v27.14h9.31v-8.78h9.04l-.13-.13v18.5h9.43v8.76h8.98v-9.05h9.14v-9.06l-.13.13h9.34v-9.4h9v-18.09h9.14v9.38h9.31v8.61h8.97v-17.99h18.28v18.35h9.21l-.13-.13v9.27l.13-.13h-18.42v18.41l.13-.13h-9.08v-17.95h-9.04v26.96h8.85v18.54l.13-.13h-9.04v18.22h-27.65v9.34l.13-.13h-9.34v-9.26h-8.94v-9.02l-.13.13h36.3v-9.33h-8.53v-9.18h8.66v-9.02h-18.21v-8.75h-9.18v8.89h-8.9c0,3.35,0,6.22,0,9.09-3.09-.04-6.18-.08-9.28-.13l.13.13v-9.36h-9.43v-9.05h-18.13l.13.13v-9.27h-9.27l.13.13v-18.41h-9.27l.13.13v-8.89h-9.27v8.89l.13-.13Zm91.52,27.29h8.73v-17.78h-8.73v17.78Z"/>
    <path class="cls-1" d="m643.22,386.93v9.1h-8.92v18.16h-9.37v18.57s.13-.13.13-.13h-9.27v9.27l.13-.13h-9.27l.13.13v-9.27h-45.84l.13.13v-9.27h-9.27l.13.13v-9.04h9.14v-9.36l-.13.13h18.57v17.97h36.05v-27.11h-8.91v-45.93h8.84v-9.17h-8.47v-9.18h8.6v-9.02h-8.9v-27.33h27.42v18.21c3.47,0,6.34,0,9.2,0v9.15h9.15v9.38h-27.28v9h9.06v9.04h9.08v18.53h-9.33v9h-8.71v9.16h18.03l-.13-.13Zm-18.42-81.9h-8.58v8.6h8.58v-8.6Z"/>
    <path class="cls-1" d="m30.75,423.63h9.05v-9.29c6.47,0,12.48,0,18.48,0,0,2.97,0,5.94,0,8.92h8.76v-8.79h-8.9v-8.89h27.43c0,2.95,0,5.93,0,8.9,0,0,.13-.13.13-.13h-9.34v36.78h-18.21v9.06l.13-.13h-9.04v9.13h-9.36l.13.13v-18.1H12.74v-9.37H3.38v-9.14h9.21v-9.21s-.13.13-.13.13h9.27l-.13-.13v9.32h9.11v8.67h36.41v-8.53c-12.34,0-24.44,0-36.53,0,.09-3.16.18-6.3.27-9.45l-.13.13Z"/>
    <path class="cls-1" d="m177.14,341.22h-18.2v-9.03h-18.3v-9h-9.19v-18.53l-.13.13c3.09,0,6.18,0,9.27,0l-.13-.13v8.89h9.27v-8.89l-.13.13h9.21v-9.21h18.28v18.2h-8.91v8.88h45.32v-8.53h9.08v17.82h-27.27v9.4s.13-.13.13-.13c-3.09,0-6.18,0-9.27,0l.13.13v-8.89h-9.27v8.89l.13-.13Z"/>
    <path class="cls-1" d="m478.75,295.58v18.14h8.87v18.25h-8.51v9.14h8.7v9.37l.13-.13h-9.08v8.97h-9.01v-8.74h-9.12v-9.17h8.54v-18.11h-8.65v8.62h-9.17v9.33h-9.17v8.85h-9.18v-27.17s-.13.13-.13.13h18.41v-18.41l-.13.13h18.35v-9.21h9.14Z"/>
    <path class="cls-1" d="m816.98,295.58v27.14h-9v-17.64h-9.18v17.76h-9.15c0,6.32,0,12.33,0,18.35,0,0,.13-.15.13-.15-2.88.14-5.76.27-9.13.43v8.89c-3.46,0-6.44,0-9.43,0,0,0,.13.13.13.13v-18.49h8.72v-8.94h-27.14v-9.36h18.42v-9.05s-.13.13-.13.13c3.08-.05,6.17-.09,9.25-.14,0,2.97,0,5.94,0,8.92h8.77v-8.79h-8.9c.03-3.07.05-6.13.08-9.2,12.19,0,24.38,0,36.57,0Z"/>
    <path class="cls-1" d="m579.3,295.58v18.16h18.01v45.76h-18.07l.13.13v-9.41h8.86v-26.96h-9.05v17.96h-9.08l.13.13v-9.36h-18.28v-9.05l-.13.13h18.02v-9.46h-8.58v-8.99h8.9v-9.05h9.14Z"/>
    <path class="cls-1" d="m39.88,332.08v9.1h-8.91v18.03H12.46c0-2.88,0-5.86,0-8.84,2.98,0,5.96,0,8.88,0v-36.63h-8.87v-9.01H3.38v-9.14h18.28v9.34h9.35v27.29h9l-.13-.13Z"/>
    <path class="cls-1" d="m716.43,295.58v9.07h-9v9.01h-9.35v9.41l.13-.13c-3.09.04-6.18.09-9.27.13v-8.9h-9.01v8.89c-3.09-.04-6.18-.08-9.28-.13l.13.13v-9.14h-9.28c.02-6.11.05-12.23.07-18.34h18.28v8.85h18.28v-8.85h18.28Z"/>
    <path class="cls-1" d="m542.8,304.79h-36.45v17.92h-9.16v-17.74h-9.3v-9.39h54.85c.02,3.07.04,6.14.06,9.21Z"/>
    <path class="cls-1" d="m67.38,295.58v9.01h-9.08v9.34c-2.86,0-5.73,0-9.05,0v18.16c-3.42,0-6.39,0-9.36,0,0,0,.13.13.13.13-.02-12.21-.04-24.42-.06-36.63h27.42Z"/>
    <path class="cls-1" d="m350.76,295.58h18.28v9.35h-9.21v18.14l.13-.13h-18.28v-9.14l-.13.13h9.21v-18.35Z"/>
    <path class="cls-1" d="m734.71,295.58c.02,9.16.04,18.33.06,27.49h-18v-9.05h8.79v-18.44h9.14Z"/>
    <path class="cls-1" d="m250.21,295.58v9h-9.22v9.33l.13-.13h-9.19v-18.21h18.28Z"/>
    <path class="cls-1" d="m3.38,323h9.21c0,9.36,0,18.42,0,27.49-3.07-.02-6.14-.04-9.21-.06v-27.42Z"/>
    <path class="cls-1" d="m332.54,313.93v-9.03h-9.2v-9.32h18.28c-.02,6.12-.04,12.23-.06,18.35,0,0,.13-.13.13-.13-3.09,0-6.18,0-9.27,0l.13.13Z"/>
    <path class="cls-1" d="m433.04,295.58h18.28c-.02,3.07-.04,6.14-.06,9.21,0,0,.13-.13.13-.13-2.97,0-5.95,0-9.36,0v9.14h-9.05l.13.13c-.02-6.12-.04-12.23-.06-18.35Z"/>
    <path class="cls-1" d="m3.38,386.99h9.21c0,6.31,0,12.33,0,18.34-3.07-.02-6.14-.04-9.21-.06v-18.28Z"/>
    <path class="cls-1" d="m103.94,295.58v8.85h-18.28v-8.85h18.28Z"/>
    <path class="cls-1" d="m131.44,304.66h-18.35v-9.08h18.28c-.02,3.07-.04,6.14-.06,9.21l.13-.13Z"/>
    <path class="cls-1" d="m3.38,414.42c3.07.02,6.14.05,9.2.07l-.13-.13c0,3.09,0,6.18,0,9.27,0,0,.13-.13.13-.13-3.07.02-6.14.04-9.21.06v-9.14Z"/>
    <path class="cls-1" d="m3.38,368.71h8.84v9.14H3.38v-9.14Z"/>
    <path class="cls-1" d="m140.57,304.79c-.02-3.07-.04-6.14-.06-9.21h9.14l-.06,9.21.13-.13c-3.09,0-6.18,0-9.27,0l.13.13Z"/>
    <path class="cls-1" d="m195.42,304.79h-9.2v-9.21h9.14l.06,9.21Z"/>
    <path class="cls-1" d="m204.43,304.78c.02-3.07.04-6.14.06-9.21h9.14v9.21h-9.21Z"/>
    <path class="cls-1" d="m597.59,295.58v8.84h-9.14v-8.84h9.14Z"/>
    <path class="cls-1" d="m771.35,304.66h-9.21v-9.08c3.05,0,6.09,0,9.14,0-.02,3.07-.04,6.14-.06,9.21l.13-.13Z"/>
    <path class="cls-1" d="m3.38,469.27h8.84v9.14H3.38v-9.14Z"/>
    <path class="cls-1" d="m469.55,432.62h9.1v18.21h9.02v9.2h18.34v9.03h9v9.11h-26.9v-8.97h-9.43l.13.13v-8.89h-9.27v8.89l.13-.13h-9.08v-17.94h-9.14v26.8h-36.51v-8.86h-18.53l.13.13v-8.89h-9.27v8.89l.13-.13h-18.22v8.96h-63.91c-.16-3.12-.31-6.11-.46-9.1,3.08,0,6.15,0,9.34,0v-9.02h8.9v-8.74h-8.77c0,3.17,0,6.02,0,8.87-2.97,0-5.94,0-9.33,0v9c-3.03,0-6.06.01-9.09.02l.13.13v-18.41h-18.41l.13.13c0-6.14,0-12.27,0-18.41l-.13.13h27.55l-.13-.13v8.89h9.27v-8.89l-.13.13h9.27v-18.41l-.13.13h9.36v-9.13h9.04l-.13-.13v18.46h-8.73v8.94c6.22,0,12.11,0,18,0,0,2.98,0,5.96,0,9.4h-9.3v8.99h-8.74v9.31h8.97v8.67h9.14v-18.09c3.34,0,6.2,0,9.06,0,0,2.98,0,5.96,0,8.88h18.02v-26.82h-9.05v18.07h-9.09v-18.28h-9.14v-18.45h9.39v-8.97h9.04l-.13-.13v18.03h9.17v-8.61h9v27.28h9.38l-.13-.13v8.89h9.27v-8.89l-.13.13h9.04v9c3.41,0,6.38,0,9.35,0,0,6.02,0,12.03,0,18.04h9.02c0-6.22,0-12.11,0-18.01,2.97,0,5.94,0,8.92,0v-8.76h-8.79v8.9c-3.09,0-6.18-.02-9.28-.03,0-6.07,0-12.15,0-18.23,0,0-.13.15-.13.15,2.87-.13,5.75-.27,9.1-.42v-17.94h9.31v-9.08h36.43v8.71h-8.85c0,6.49,0,12.5,0,18.52-2.98,0-5.96,0-9.39,0v-17.96h-9.16v8.89h-8.61v9.16h8.87v8.7h18.16v-8.91Z"/>
    <path class="cls-1" d="m103.88,377.92c3.09,0,6.18,0,9.26,0l-.13-.13v18.02h9.27v-18.02l-.13.13h9.36v9.14h9.05l-.13-.13v9.38h-9.33v9.14h-8.62v18.02c6.14,0,12.02,0,17.91,0,0,0-.15-.13-.15-.13v9.42h-8.58v18.3h8.89l-.13-.13c0,6.13,0,12.26.01,18.4l.13-.13h-18.17v-8.79h-9.3v17.79h-8.97v-9h-9.38l.13.13v-9.41h-9.14v-45.57s-.13.13-.13.13c6.13-.05,12.27-.09,18.4-.14,0,2.97,0,5.94,0,8.92h8.76v-8.79h-8.9v-9.04h-8.99v-9.36l-.13.13h9.27v-18.41l-.13.13Zm9.47,54.87v8.75h8.53v-8.75h-8.53Zm-18.28,9.14v8.75h8.53v-8.75h-8.53Z"/>
    <path class="cls-1" d="m195.29,341.35h9.06v9.15h18.49l-.13-.13v9.41h-8.7v27.41h8.89v9.17h9.17v9.01h9.15v27.41h18.19l-.13-.13v9.27l.13-.13h-18.18v36.34h-45.8v-27.19l-.13.13h9.36v-9.43h8.93v-18.13h8.86v27.63h-8.52v8.67h17.64v-45.55h-8.9v-8.9h-9.1v-9.37h-27.15v-8.98h17.81v-27.57h-8.81v-18.2l-.13.13Z"/>
    <path class="cls-1" d="m561.1,469.21v8.9h-36.36v-8.67h17.74v-18.27h9.47v-18.53l-.13.13h9.27s-.13-.13-.13-.13v9.39h18.47v8.69h9.17v-8.81h18.2s-.13-.13-.13-.13c.05,3.09.09,6.17.14,9.26-2.97,0-5.94,0-8.92,0v8.76h8.79v-8.9h9.26v-9.13l-.13.13h9.27v-9.27s-.13.13-.13.13c5.92,0,11.83,0,18.05,0v8.91h-8.48v18.53h8.84l-.13-.13v18.04h-18.05v-8.5h-18.33v8.55h-9.03v-8.82c-12.6,0-24.71,0-36.83,0,0-2.97,0-5.94,0-8.92h-8.77v8.79h8.9Z"/>
    <path class="cls-1" d="m725.64,423.61c0-3.08,0-6.17,0-9.25,0,0-.13.13-.13.13h9.27v-18.41l-.13.13c6.13-.05,12.26-.09,18.4-.14,0,3.09.02,6.18.03,9.27-2.97,0-5.94,0-8.92,0v8.76h8.79v-8.9h8.88v-9.01h-8.9c.05-6.13.1-12.27.14-18.4l-.13.13c3.04.02,6.07.03,9.11.05v8.67h9.01v-8.53c-3.19,0-6.16,0-9.13,0,.09-3.16.18-6.3.27-9.45l-.13.13h18.2v9.02h18.2v9h-18.14v9.39l.13-.13h-9.08v18.17h-8.88v9.18h8.51v9.07h-17.82v-9h-27.67l.13.13Z"/>
    <path class="cls-1" d="m698.08,359.5h27.18v-8.9h-8.49v-18.38c5.94,0,11.97,0,17.99,0,0,0-.13-.13-.13-.13v9.14h18.42c0,3.08,0,6.17,0,9.25-6.01,0-12.01,0-18.06,0v8.77h17.93v-8.91c6.13.05,12.27.1,18.4.14,0,0-.13-.13-.13-.13v9.05h-9.14v9.37s.13-.13.13-.13h-9.27v9.27l.13-.13h-9.43v-8.83h-27.31v8.83h-18.24l.13.13c-.04-6.14-.08-12.28-.13-18.42Z"/>
    <path class="cls-1" d="m195.43,450.92h-9.09v9.02h-9.01v18.14h-36.76c0-2.92,0-5.9,0-8.88,0,0-.13.13-.13.13h9.41v-9.34h17.8v-9.18h-8.65v-9.01h18.2v-9.18c6.4,0,12.3,0,18.21,0-.04,6.14-.08,12.28-.13,18.42l.13-.13Z"/>
    <path class="cls-1" d="m725.31,459.91v18.29h-8.73v-8.66h-36.56v8.52h-18.13v-26.81h17.85v8.78c15.45,0,30.58,0,45.72,0,0,0-.15-.13-.15-.13Z"/>
    <path class="cls-1" d="m752.94,460.2h9.04v-9.15c3.42,0,6.39,0,9.36,0,0,0-.13-.13-.13-.13v8.89h9.27v-8.89s-.13.13-.13.13c6.13,0,12.27,0,18.4,0l-.13-.13v9.1h-8.92v18.02h-9.19v-8.54h-18.16v8.6h-27.4v-8.63h18.12v-9.41l-.13.13Z"/>
    <path class="cls-1" d="m533.67,350.49v-9.26l-.13.13h18.57v8.83h9.03v-8.83h9.1l-.13-.13v18.41l.13-.13h-9.27v9.27l.13-.13h-18.14v8.91h-9.27v-18.05l-.13.13h8.89v-9.27h-8.89l.13.13Z"/>
    <path class="cls-1" d="m524.57,423.87v8.72h8.7v9.17h-17.78v8.87h-18.3v-8.74h-9.07v-17.99h17.96v8.56h9.01v-8.58h9.49Z"/>
    <path class="cls-1" d="m725.51,423.48c0,3.09-.02,6.18-.03,9.28l.13-.13h-9.1v18.11h-9.03v-18.12h-36.82l.13.13v-9.08h-8.97v-8.89h17.88v8.83c15.63,0,30.78,0,45.94,0,0,0-.13-.13-.13-.13Z"/>
    <path class="cls-1" d="m698.2,386.92h-9.1v18.11h-9.03v-18.11h-18.55l.13.13v-9.38h18.33v-8.7h9.16v8.95h9.08l-.13-.13v9.27l.13-.13Z"/>
    <path class="cls-1" d="m789.34,405.53h18.4v8.73h8.96v18.21h-8.67v-8.99h-18.54l.13.13c-.06-6.07-.11-12.15-.16-18.22,0,0-.13.15-.13.15Z"/>
    <path class="cls-1" d="m433.11,396.19v-36.31h8.9v8.62h9v18.33h-8.62v9.23h-9.42l.13.13Z"/>
    <path class="cls-1" d="m295.85,469.2v8.9h-45.32v-17.9h8.88l-.13-.13v9.27h36.69l-.13-.13Z"/>
    <path class="cls-1" d="m725.64,414.36h-9.05v-9.16h-9.36l.13.13c0-3.08,0-6.17,0-9.25l-.13.13h9.4v-9.33h9v-8.7h9.02v18.03l.13-.13h-9.27v18.41l.13-.13Z"/>
    <path class="cls-1" d="m487.81,350.48h9.12v-18.09h18.03v8.78h-8.62v18.04h-18.39c0-2.89,0-5.87,0-8.86,0,0-.13.13-.13.13Z"/>
    <path class="cls-1" d="m579.24,359.5v18.17h-9.01v9.39c-6.14-.04-12.28-.08-18.42-.13l.13.13v-9.05h9.13v-9.37s-.13.13-.13.13h9.27v-9.27l-.13.13c3.09,0,6.18,0,9.27,0l-.13-.13Z"/>
    <path class="cls-1" d="m94.74,469.2v8.92h-27.2v-8.63h-9.24c0-3.45,0-6.44,0-9.43,0,0-.13.13-.13.13h18.51v9.14h18.18l-.13-.13Z"/>
    <path class="cls-1" d="m798.75,451.07v-8.92h17.97v36.04h-8.69v-27.25c-3.43,0-6.42,0-9.4,0,0,0,.13.13.13.13Z"/>
    <path class="cls-1" d="m478.49,386.78h-17.69v-17.77h17.69v17.77Z"/>
    <path class="cls-1" d="m533.67,341.22h-8.91v-27.11h8.62v8.96c3.45,0,6.44,0,9.42,0,0,0-.13-.13-.13-.13v9.36h-9.14v9.05l.13-.13Z"/>
    <path class="cls-1" d="m405.56,405.35c3.03-.06,6.05-.11,9.08-.16,0,0-.15-.13-.15-.13.15,2.98.3,5.95.47,9.22h8.72c0,6.41,0,12.54,0,18.67,0,0,.13-.15.12-.14-2.86,0-5.72,0-8.89,0v-9.03h-9.22v-18.56l-.13.13Z"/>
    <path class="cls-1" d="m725.49,432.76h18.03v8.99h-8.78v18.18c-3.44,0-6.43,0-9.42,0,0,0,.15.13.14.12.05-9.14.1-18.28.16-27.41,0,0-.13.13-.13.13Z"/>
    <path class="cls-1" d="m496.81,405.53h27.4v8.53h-27.28c0-2.76,0-5.72,0-8.67,0,0-.13.15-.13.15Z"/>
    <path class="cls-1" d="m661.52,386.92v9.1h8.96v8.9h-17.97v-17.99l-.13.13h9.27l-.13-.13Z"/>
    <path class="cls-1" d="m259.41,460.2v-18.42s-.13.13-.13.13h9.36v9.14h9.05l-.13-.13v9.14h-18.28l.13.13Z"/>
    <path class="cls-1" d="m405.53,368.77h9.09v9.05h9.06v8.85h-18.02c0-5.99,0-12.01,0-18.03,0,0-.13.13-.13.13Z"/>
    <path class="cls-1" d="m497.11,377.57v-8.5h27.01v8.5h-27.01Z"/>
    <path class="cls-1" d="m39.9,469.19v8.92h-17.96v-17.75h8.68v8.97c3.44,0,6.42,0,9.41,0,0,0-.13-.13-.13-.13Z"/>
    <path class="cls-1" d="m561.09,405.22c-6.14,0-12.27-.01-18.41-.02,0,0,.13.13.13.13v-18.27c3.17,0,6.15,0,9.14,0,0,0-.13-.13-.13-.13v9.36h9.14v9.05s.13-.13.13-.13Z"/>
    <path class="cls-1" d="m405.69,405.22h-18.02v-8.79h17.89c0,2.98,0,5.95,0,8.92,0,0,.13-.13.13-.13Z"/>
    <path class="cls-1" d="m542.67,304.66h9.14v18.42s.13-.13.13-.13h-9.27s.13.13.13.13c-.04-6.14-.08-12.28-.13-18.42Z"/>
    <path class="cls-1" d="m789.51,423.48v18.28h-9.14l.13.13v-18.28c3.18,0,6.16,0,9.14,0,0,0-.13-.13-.13-.13Z"/>
    <path class="cls-1" d="m808.18,378.03h8.55v17.88h-8.55v-17.88Z"/>
    <path class="cls-1" d="m432.98,396.06v9.02c-6.24,0-12.36,0-18.48,0,0,0,.15.13.14.12,0-2.85,0-5.69,0-9,6.46,0,12.46,0,18.47,0,0,0-.13-.13-.13-.13Z"/>
    <path class="cls-1" d="m533.67,359.51h-18.03v-9.02c5.99,0,12.01,0,18.03,0,0,0-.13-.13-.13-.13v9.27l.13-.13Z"/>
    <path class="cls-1" d="m798.62,341.24v18.04h-8.86c0-6.15,0-12.19,0-18.24,0,0-.13.15-.12.14,3.04.06,6.07.12,9.11.19l-.13-.13Z"/>
    <path class="cls-1" d="m816.66,368.52h-8.57v-17.88h8.57v17.88Z"/>
    <path class="cls-1" d="m670.66,432.62v8.91h-17.93v-8.77c6.04,0,12.05,0,18.06,0,0,0-.13-.13-.13-.13Z"/>
    <path class="cls-1" d="m497.1,396.19v-8.87h8.77v8.74h-8.9l.13.13Z"/>
    <path class="cls-1" d="m515.52,395.89v-8.56h8.64v8.56h-8.64Z"/>
    <path class="cls-1" d="m707.36,396.07h-9.15v-9.15s-.13.13-.13.13h9.14v9.14l.13-.13Z"/>
    <path class="cls-1" d="m368.98,396.2h8.9v9.02c-2.95,0-5.92,0-8.9,0,0,0,.13.13.13.13v-9.27l-.13.13Z"/>
    <path class="cls-1" d="m798.75,341.37v-8.9h8.79v8.76c-2.98,0-5.95,0-8.92,0,0,0,.13.13.13.13Z"/>
    <path class="cls-1" d="m496.97,396.06c-.05,3.15-.1,6.31-.16,9.47,0,0,.13-.15.12-.14-2.84,0-5.67,0-8.78,0v-9.21c3.02,0,5.98,0,8.94,0,0,0-.13-.13-.13-.13Z"/>
    <path class="cls-1" d="m780.34,396.19h9.02c0,3.18,0,6.26,0,9.33,0,0,.13-.15.12-.14-2.84,0-5.68,0-9,0,0-3.39,0-6.36,0-9.33,0,0-.13.13-.13.13Z"/>
    <path class="cls-1" d="m414.67,341.34h8.9v8.79h-8.76c0-2.98,0-5.95,0-8.92,0,0-.13.13-.13.13Z"/>
    <path class="cls-1" d="m542.68,405.2v8.9h-8.79v-8.76c2.98,0,5.95,0,8.92,0,0,0-.13-.13-.13-.13Z"/>
    <path class="cls-1" d="m707.23,405.2v8.9h-8.79v-8.76c2.98,0,5.95,0,8.92,0,0,0-.13-.13-.13-.13Z"/>
    <path class="cls-1" d="m643.56,414.51h8.53v8.75h-8.53v-8.75Z"/>
    <path class="cls-1" d="m551.95,432.64h-8.9v-9.02c2.95,0,5.92,0,8.9,0,0,0-.13-.13-.13-.13v9.27l.13-.13Z"/>
    <path class="cls-1" d="m396.53,441.91v-8.9h9.02v8.9s.13-.13.13-.13h-9.27l.13.13Z"/>
    <path class="cls-1" d="m780.36,441.76c0,3.1,0,6.19,0,9.29,0,0,.13-.13.13-.13h-9.27s.13.13.13.13c0-2.87,0-5.75,0-9.16,3.18,0,6.17,0,9.16,0,0,0-.13-.13-.13-.13Z"/>
    <path class="cls-1" d="m643.35,460.21v-8.9h8.79v8.76c-2.98,0-5.95,0-8.92,0,0,0,.13.13.13.13Z"/>
    <path class="cls-1" d="m753.07,460.07h-8.9v-8.79h8.77c0,2.98,0,5.95,0,8.92,0,0,.13-.13.13-.13Z"/>
    <path class="cls-1" d="m652.51,386.93c-3.09,0-6.19,0-9.28,0,0,0,.13.13.13.13v-8.89h9.01v8.89l.13-.13Z"/>
    <path class="cls-1" d="m396.41,469.2v8.9h-9.02v-8.9s-.13.13-.13.13h9.27l-.13-.13Z"/>
    <path class="cls-1" d="m478.68,469.2v8.9h-9.02v-8.9s-.13.13-.13.13c3.09,0,6.18,0,9.27,0l-.13-.13Z"/>
    <path class="cls-1" d="m286.85,368.76v-9.01h8.93v-9.25h9.33l-.13-.13v8.89h9.27v-8.89l-.13.13h9.39v9.14h18.17l-.13-.13v9.14h9.28c-.04,3.09-.09,6.18-.13,9.27l.13-.13h-9.4v9.33h-9v9.17h-9.15v18.2l.13-.13h-9.27v18.41l.13-.13h-9.27s.13.13.13.13v-9.42h-8.96v-9.03h8.96v-9.1l-.13.13h9.13c0-6.58,0-12.49,0-18.4,2.97,0,5.94,0,8.92,0v-17.89h-8.79v18.02c-6.13-.05-12.27-.1-18.4-.14l.13.13v-9.03h8.78v-9.39h-18.05l.13.13Z"/>
    <path class="cls-1" d="m259.29,359.64h8.9v18.03h-8.47v27.43h8.69v9.09h9.01v-8.84h9.41l-.13-.13v18.49h-9.14v9.06l.13-.13c-6.14,0-12.27,0-18.41,0l.13.13v-18.58h-8.96v-45.58h8.96v-9.1l-.13.13Z"/>
    <path class="cls-1" d="m222.84,350.5v-9.09h8.89v-8.89h9.17v8.7h9.17v9.01h9.21c0,3.44,0,6.43,0,9.41,0,0,.13-.13.13-.13h-18.51v-9.14h-18.18l.13.13Z"/>
    <path class="cls-1" d="m305.12,341.22h-36.32v-8.91h8.62v-9.24h9.42l-.13-.13v9.27h18.41l-.13-.13v9.27l.13-.13Z"/>
    <path class="cls-1" d="m240.99,313.92h18.04v17.95h-8.7v-8.68h-9.22c0-3.44,0-6.43,0-9.41,0,0-.13.13-.13.13Z"/>
    <path class="cls-1" d="m286.83,405.35v-18.29c3.18,0,6.17,0,9.15,0,0,0-.13-.13-.13-.13v9.36h9.14v9.05l.13-.13c-6.14,0-12.27,0-18.41,0l.13.13Z"/>
    <path class="cls-1" d="m286.83,323.07c0-3.09,0-6.19,0-9.28,0,0-.13.13-.13.13,3.09,0,6.18,0,9.27,0,0,0-.13-.13-.13-.13v9.14h-9.14l.13.13Z"/>
    <path class="cls-1" d="m277.32,395.93h-8.6v-8.58h8.6v8.58Z"/>
    <path class="cls-1" d="m305.12,350.5c0-3.09,0-6.19,0-9.28,0,0-.13.13-.13.13,3.09,0,6.18,0,9.27,0,0,0-.13-.13-.13-.13v9.27l.13-.13h-9.27l.13.13Z"/>
    <path class="cls-1" d="m286.72,368.63v8.9h-8.79v-8.76c2.98,0,5.95,0,8.92,0,0,0-.13-.13-.13-.13Z"/>
    <path class="cls-1" d="m195.29,304.66c3.09,0,6.18,0,9.27,0v8.89h-9.27v-8.89Z"/>
    <path class="cls-1" d="m67.31,322.94h27.33v-8.81h27.34v8.67h-17.92v9.16h-8.9v18.29h8.71c0,9.54,0,18.61,0,27.67,0,0,.13-.13.13-.13h-18.41v9.27l.13-.13h-9.05v-18.28h-9.36l.13.13v-9.27l-.13.13c6.13-.05,12.26-.09,18.4-.14,0,2.97,0,5.94,0,8.92h8.76v-8.79h-8.9v-18.27c-3.38,0-6.25,0-9.12,0,0-2.99,0-5.97,0-9.28h-9.14l.13.13c-.04-3.09-.09-6.18-.13-9.27Z"/>
    <path class="cls-1" d="m12.59,414.49c-.04-3.09-.08-6.18-.13-9.28h9.01v-18.31c6.41,0,12.38,0,18.36,0,0,0-.15-.13-.15-.13v18.27h-8.95c0,6.52,0,12.55,0,18.58,0,0,.13-.13.13-.13h-9.27s.13.13.13.13v-9.27h-9.27l.13.13Z"/>
    <path class="cls-1" d="m49.04,387.07h18v8.77h-17.87v-8.9l-.13.13Z"/>
    <path class="cls-1" d="m94.87,396.07h-9.15c0-3.18,0-6.16,0-9.15,0,0-.13.13-.13.13h9.14v9.14l.13-.13Z"/>
    <path class="cls-1" d="m58.3,341.35v-9.14c3.17,0,6.16,0,9.14,0,0,0-.13-.13-.13-.13.04,3.09.09,6.18.13,9.27-3.09-.04-6.18-.08-9.28-.13l.13.13Z"/>
    <path class="cls-1" d="m58.3,350.36h-8.89v-9.01c2.95,0,5.93,0,8.9,0,0,0-.13-.13-.13-.13,0,3.09,0,6.18,0,9.27l.13-.13Z"/>
    <path class="cls-1" d="m58.3,359.63c0-3.09,0-6.18,0-9.27,0,0-.13.13-.13.13,3.09-.04,6.18-.08,9.28-.13-.04,3.09-.09,6.18-.13,9.27l.13-.13h-9.27l.13.13Z"/>
    <path class="cls-1" d="m58.3,368.64h-8.89v-9.01c2.95,0,5.93,0,8.9,0,0,0-.13-.13-.13-.13,0,3.09,0,6.18,0,9.27l.13-.13Z"/>
    <path class="cls-1" d="m67.31,368.64v8.9h-9.02c0-2.95,0-5.92,0-8.9,0,0-.13.13-.13.13h9.27l-.13-.13Z"/>
    <path class="cls-1" d="m49.17,386.94c-3.15-.05-6.31-.1-9.47-.16,0,0,.15.13.14.12,0-2.84,0-5.67,0-8.78h9.21c0,3.02,0,5.98,0,8.94,0,0,.13-.13.13-.13Z"/>
    <path class="cls-1" d="m58.17,313.8h9.27v9.27h-9.27v-9.27Z"/>
    <path class="cls-1" d="m149.59,350.5h18.16v17.91h9.38c0-9.1,0-18.15,0-27.2,0,0-.13.13-.13.13h9.27l-.13-.13v27.66h8.99v9h-18.19v9.18c-3.35,0-6.21,0-9.08,0,0-2.99,0-5.97,0-9.43h-9.24v-8.62h-8.92v18.05c-3.09-.04-6.18-.09-9.27-.13,0,0,.13.13.13.13v-27.55l-.13.13h9.27v-9.27l-.13.13Z"/>
    <path class="cls-1" d="m113.14,377.92v-36.47h9.01v-9.08h9.02v18.13h9.4l-.13-.13v9.27l.13-.13h-9.34v9.39h-9.07v9.02s.13-.13.13-.13c-3.09,0-6.18,0-9.27,0l.13.13Z"/>
    <path class="cls-1" d="m140.57,350.5v-8.9h9.02c0,2.95,0,5.92,0,8.9,0,0,.13-.13.13-.13-3.09,0-6.18,0-9.27,0l.13.13Z"/>
    <path class="cls-1" d="m606.79,396.07v18.05h-9.04v-8.62h-9.37v-9.42c6.14,0,12.27,0,18.41,0Z"/>
    <path class="cls-1" d="m588.7,387.21v-18.26h8.53v18.14c-2.77,0-5.72,0-8.67,0,0,0,.15.13.15.13Z"/>
    <path class="cls-1" d="m588.51,396.2h-18.41v-9.27c6.2.09,12.39.18,18.6.27,0,0-.15-.13-.14-.12-.01,3.04-.03,6.08-.04,9.12Z"/>
    <path class="cls-1" d="m661.51,350.49c0-9.18,0-18.37,0-27.55,3.09.04,6.18.08,9.28.13,0,0-.13-.13-.13-.13v9.14h9.28v9.34h9.26v9.07h9.02l-.13-.13c.04,3.09.09,6.18.13,9.27h-18.18v-9.14h-18.51Z"/>
    <path class="cls-1" d="m698.07,323.06h8.91v27.3c-2.96,0-5.93,0-8.91,0,0,0,.13.13.13.13v-27.55l-.13.13Z"/>
    <path class="cls-1" d="m753.06,322.94c0,3.09,0,6.18,0,9.27-6.14-.04-12.28-.08-18.42-.13,0,0,.13.13.13.13-.04-3.09-.08-6.18-.13-9.28,6.14,0,12.27,0,18.41,0Z"/>
    <path class="cls-1" d="m661.64,313.8v9.27c-3.09,0-6.18,0-9.27,0v-9.27c3.09,0,6.18,0,9.27,0Z"/>
    <path class="cls-1" d="m652.5,313.93c-3.09,0-6.18,0-9.27,0v-8.89h9.27v8.89Z"/>
    <path class="cls-1" d="m341.68,405.36v-8.9h8.79v8.76c-2.98,0-5.95,0-8.92,0,0,0,.13.13.13.13Z"/>
    <path class="cls-1" d="m350.7,368.78v-9.27h8.89v9.27h-8.89Z"/>
    <path class="cls-1" d="m652.37,350.36h9.27v9.1h8.83v8.9h-18.1v-18Z"/>
    <path class="cls-1" d="m643.23,350.49v-8.89h9.27v8.89h-9.27Z"/>
    <path class="cls-1" d="m149.6,423.64h9.07v-8.96h9.05v17.69h-17.99v-8.86l-.13.13Z"/>
    <path class="cls-1" d="m195.57,423.31h-18.29v-8.72h8.85v-9.08h9.31c0,5.92,0,11.93,0,17.94,0,0,.13-.15.13-.15Z"/>
    <path class="cls-1" d="m149.59,386.93h18.41v8.9h-18.41v-8.9Z"/>
    <path class="cls-1" d="m213.7,423.62h-9.27v-18.41h9.27c0,6.14,0,12.27,0,18.41Z"/>
    <path class="cls-1" d="m149.73,423.51c-3.15-.05-6.31-.1-9.47-.16,0,0,.15.13.14.12,0-2.84,0-5.67,0-8.78h9.21c0,3.02,0,5.98,0,8.94,0,0,.13-.13.13-.13Z"/>
    <path class="cls-1" d="m204.56,423.5v9.27h-9.27c.09-3.15.18-6.3.27-9.45,0,0-.13.15-.12.14,3.04.01,6.08.03,9.12.05Z"/>
    <path class="cls-1" d="m140.56,451.07v-8.9h8.79v8.76c-2.98,0-5.95,0-8.92,0,0,0,.13.13.13.13Z"/>
    <path class="cls-1" d="m752.93,341.35v-9.27c2.86,0,5.72,0,8.89,0v9.27h-8.89Z"/>
    <path class="cls-1" d="m679.8,332.21v-9.27c3.09,0,6.18,0,9.27,0v9.27h-9.27Z"/>
    <path class="cls-1" d="m240.75,386.79h-8.6v-17.71h8.6v17.71Z"/>
    <path class="cls-1" d="m67.31,350.49c0-3.09,0-6.18,0-9.27,3.09,0,6.18,0,9.27,0v9.27h-9.27Z"/>
  </g>
</svg>